Coordinates
version=1
nRows=17
nColumns=40
inDegrees=yes

Units are S.I. units (second, meters, Newtons, ...)
If the header above contains a line with 'inDegrees', this indicates whether rotational values are in degrees (yes) or radians (no).

endheader
time	pelvis_tilt	pelvis_list	pelvis_rotation	pelvis_tx	pelvis_ty	pelvis_tz	hip_flexion_r	hip_adduction_r	hip_rotation_r	knee_angle_r	knee_angle_r_beta	ankle_angle_r	subtalar_angle_r	mtp_angle_r	hip_flexion_l	hip_adduction_l	hip_rotation_l	knee_angle_l	knee_angle_l_beta	ankle_angle_l	subtalar_angle_l	mtp_angle_l	lumbar_extension	lumbar_bending	lumbar_rotation	arm_flex_r	arm_add_r	arm_rot_r	elbow_flex_r	pro_sup_r	wrist_flex_r	wrist_dev_r	arm_flex_l	arm_add_l	arm_rot_l	elbow_flex_l	pro_sup_l	wrist_flex_l	wrist_dev_l
      5.35000000	    -25.58821718	      3.77185013	      2.53847692	     -0.31023795	      0.77816703	     -1.04563742	     23.95699341	    -10.89335290	     -4.95888197	     87.03945479	      1.51912507	    -18.29849328	      0.00000000	      0.00000000	     70.65687843	      5.90783387	     -9.59813581	     85.18590067	      1.48677444	     29.19848696	      0.00000000	      0.00000000	     -0.82749867	     -6.51157369	      2.02103113	     89.90239741	    -20.61820355	     18.87097068	     50.80367122	     85.71187121	      0.00000000	      0.00000000	     89.92257870	    -16.94094526	     26.00893450	     48.98399813	     84.95445657	      0.00000000	      0.00000000
      5.35500000	    -25.65295994	      3.75304286	      2.53833545	     -0.31024400	      0.77761284	     -1.04563207	     24.01381084	    -10.85902977	     -4.94786136	     87.06260868	      1.51952918	    -18.30153565	      0.00000000	      0.00000000	     70.77530671	      5.89550650	     -9.58751119	     85.28452679	      1.48849579	     29.23965609	      0.00000000	      0.00000000	     -0.77691089	     -6.49861350	      2.04098240	     89.90255344	    -20.63406162	     18.88038435	     50.84287809	     85.74617001	      0.00000000	      0.00000000	     89.92261405	    -16.93030891	     25.98690045	     49.01027801	     85.04195460	      0.00000000	      0.00000000
      5.36000000	    -25.68225293	      3.74626562	      2.57371998	     -0.31022547	      0.77721893	     -1.04568877	     24.01591080	    -10.85506234	     -4.96566225	     87.07713906	      1.51978278	    -18.28252401	      0.00000000	      0.00000000	     70.83763964	      5.93224649	     -9.56333893	     85.34341009	      1.48952350	     29.26686532	      0.00000000	      0.00000000	     -0.78426923	     -6.48986408	      2.03096878	     89.90280636	    -20.65642207	     18.88151561	     50.89717254	     85.70335283	      0.00000000	      0.00000000	     89.92278305	    -16.93119625	     25.99387484	     49.02115131	     85.00476891	      0.00000000	      0.00000000
      5.36500000	    -25.74707477	      3.72534681	      2.62247513	     -0.31022037	      0.77670821	     -1.04574845	     24.04039320	    -10.84387265	     -5.02659067	     87.04523054	      1.51922587	    -18.27898050	      0.00000000	      0.00000000	     70.95355674	      5.95951200	     -9.54536762	     85.43767804	      1.49116879	     29.28866458	      0.00000000	      0.00000000	     -0.75224077	     -6.47280722	      1.95404908	     89.90303442	    -20.59934371	     18.86175093	     50.83006014	     85.46895483	      0.00000000	      0.00000000	     89.92302137	    -16.95083142	     25.97086084	     49.05430899	     84.73255024	      0.00000000	      0.00000000
      5.37000000	    -25.72301981	      3.71529612	      2.58112759	     -0.31018280	      0.77634264	     -1.04560899	     24.03598110	    -10.79262904	     -4.96507926	     87.09656189	      1.52012177	    -18.38106878	      0.00000000	      0.00000000	     70.96070820	      5.89939055	     -9.56792724	     85.51937787	      1.49259472	     29.40940769	      0.00000000	      0.00000000	     -0.80825441	     -6.45489817	      1.97909206	     89.90429534	    -20.68728069	     19.29437095	     51.03753827	     83.93532622	      0.00000000	      0.00000000	     89.92288007	    -17.10755590	     26.32879550	     49.26629372	     83.12386983	      0.00000000	      0.00000000
      5.37500000	    -25.79345788	      3.70274309	      2.64255618	     -0.31031524	      0.77579029	     -1.04564473	     24.08989850	    -10.79542304	     -5.02106435	     87.14855140	      1.52102916	    -18.24556635	      0.00000000	      0.00000000	     71.09932436	      5.95719275	     -9.52022188	     85.59249647	      1.49387088	     29.35291237	      0.00000000	      0.00000000	     -0.76351243	     -6.46040832	      1.96321295	     89.90362196	    -20.58496536	     18.78262196	     50.92876023	     85.81164244	      0.00000000	      0.00000000	     89.92309157	    -16.93525290	     25.90162123	     49.08977942	     84.90535473	      0.00000000	      0.00000000
      5.38000000	    -25.84623065	      3.70265076	      2.65307427	     -0.31032161	      0.77530729	     -1.04564264	     24.14234332	    -10.78903113	     -5.01420491	     87.17383919	      1.52147052	    -18.32346379	      0.00000000	      0.00000000	     71.19260489	      5.96474788	     -9.52803667	     85.67086480	      1.49523866	     29.40344631	      0.00000000	      0.00000000	     -0.74565746	     -6.46311022	      1.96912678	     89.90381094	    -20.64253313	     18.91323921	     51.04159590	     85.36945605	      0.00000000	      0.00000000	     89.92346683	    -16.96703812	     25.99260847	     49.18311174	     84.50111807	      0.00000000	      0.00000000
      5.38500000	    -25.87595493	      3.70318841	      2.66072493	     -0.31038872	      0.77483198	     -1.04562058	     24.17127967	    -10.76519829	     -5.01552688	     87.22354725	      1.52233808	    -18.26402649	      0.00000000	      0.00000000	     71.27398475	      5.96816341	     -9.52809339	     85.75053824	      1.49662923	     29.42301148	      0.00000000	      0.00000000	     -0.74087635	     -6.46834683	      1.94525608	     89.90409008	    -20.53511823	     18.72674594	     50.94370725	     85.84099235	      0.00000000	      0.00000000	     89.92349879	    -16.91724746	     25.76316927	     49.10470278	     84.97298722	      0.00000000	      0.00000000
      5.39000000	    -25.91293281	      3.68965872	      2.65031688	     -0.31037906	      0.77441358	     -1.04556769	     24.19245474	    -10.72485015	     -4.97293322	     87.24244302	      1.52266788	    -18.21326630	      0.00000000	      0.00000000	     71.34035130	      5.94918203	     -9.51640456	     85.81319034	      1.49772271	     29.45716403	      0.00000000	      0.00000000	     -0.71422109	     -6.45193823	      1.97925281	     89.90473614	    -20.51703336	     18.94720971	     50.91339603	     83.99350833	      0.00000000	      0.00000000	     89.92387373	    -16.89727076	     25.94467325	     49.09766830	     83.14789215	      0.00000000	      0.00000000
      5.39500000	    -25.95729911	      3.67756094	      2.74161354	     -0.31049810	      0.77399676	     -1.04565215	     24.20943819	    -10.75613323	     -5.07635014	     87.27791755	      1.52328703	    -18.15362822	      0.00000000	      0.00000000	     71.44617340	      6.03503362	     -9.46633522	     85.87873559	      1.49886669	     29.44011890	      0.00000000	      0.00000000	     -0.70121827	     -6.45839598	      1.93931270	     89.90426577	    -20.51040950	     18.96109262	     50.91802188	     81.98924742	      0.00000000	      0.00000000	     89.92422679	    -16.79010148	     26.05789998	     49.04648284	     81.21028752	      0.00000000	      0.00000000
      5.40000000	    -25.95852082	      3.66293253	      2.69767126	     -0.31037055	      0.77356238	     -1.04560493	     24.19435452	    -10.67867028	     -4.97181970	     87.26648069	      1.52308741	    -18.26675271	      0.00000000	      0.00000000	     71.47955667	      5.97248995	     -9.49347963	     85.98869423	      1.50078583	     29.50936296	      0.00000000	      0.00000000	     -0.73143751	     -6.43662187	      1.97844931	     89.90443723	    -20.56294004	     18.66633821	     50.98683534	     85.83436554	      0.00000000	      0.00000000	     89.92374701	    -16.87194158	     25.72793298	     49.13961703	     84.89246022	      0.00000000	      0.00000000
      5.40500000	    -25.99985681	      3.67028856	      2.71263236	     -0.31041908	      0.77315891	     -1.04560087	     24.23371749	    -10.68145362	     -4.94943591	     87.28289822	      1.52337395	    -18.33254764	      0.00000000	      0.00000000	     71.55911446	      5.97784826	     -9.51000413	     86.04557178	      1.50177853	     29.53451038	      0.00000000	      0.00000000	     -0.72198637	     -6.45366360	      1.95061438	     89.90470437	    -20.51798036	     18.63972949	     50.99893589	     85.69265950	      0.00000000	      0.00000000	     89.92385172	    -16.91245036	     25.73046571	     49.19638677	     84.88744569	      0.00000000	      0.00000000
      5.41000000	    -26.03295086	      3.71553217	      2.68488294	     -0.31047531	      0.77275285	     -1.04552932	     24.29279285	    -10.70709050	     -4.88603523	     87.32893139	      1.52417738	    -18.43031728	      0.00000000	      0.00000000	     71.62032987	      5.96874042	     -9.56550720	     86.10064561	      1.50273975	     29.62287863	      0.00000000	      0.00000000	     -0.72862909	     -6.51303060	      1.97314485	     89.90503035	    -20.56811388	     18.76588697	     51.10523579	     85.29962301	      0.00000000	      0.00000000	     89.92407261	    -16.96090579	     25.79376493	     49.31271611	     84.47563357	      0.00000000	      0.00000000
      5.41500000	    -26.07140549	      3.71062821	      2.72592911	     -0.31057180	      0.77233339	     -1.04558836	     24.30539976	    -10.71123043	     -4.91386140	     87.34683538	      1.52448987	    -18.29868381	      0.00000000	      0.00000000	     71.71418536	      6.01340572	     -9.53819857	     86.17322287	      1.50400647	     29.57805702	      0.00000000	      0.00000000	     -0.72023583	     -6.49867970	      1.92964652	     89.90486913	    -20.44666119	     18.53894727	     51.03884916	     85.79772200	      0.00000000	      0.00000000	     89.92417964	    -16.92893278	     25.59927088	     49.26834159	     85.04335384	      0.00000000	      0.00000000
      5.42000000	    -26.08299548	      3.71527974	      2.74122923	     -0.31059198	      0.77196380	     -1.04556603	     24.31357608	    -10.70157546	     -4.89725881	     87.37775870	      1.52502958	    -18.31597417	      0.00000000	      0.00000000	     71.75997606	      6.02260070	     -9.54228340	     86.23479020	      1.50508102	     29.58747270	      0.00000000	      0.00000000	     -0.73802207	     -6.50613735	      1.90440129	     89.90523933	    -20.41448268	     18.54268562	     51.05048014	     85.73130948	      0.00000000	      0.00000000	     89.92437324	    -16.92345875	     25.51669160	     49.24362168	     84.96471952	      0.00000000	      0.00000000
      5.42500000	    -26.12003750	      3.72254363	      2.76883163	     -0.31057573	      0.77156026	     -1.04563413	     24.31932773	    -10.71950264	     -4.89812231	     87.34963560	      1.52453874	    -18.29117453	      0.00000000	      0.00000000	     71.83445204	      6.05914389	     -9.53719122	     86.29802724	      1.50618471	     29.61637609	      0.00000000	      0.00000000	     -0.73185908	     -6.52068951	      1.87860113	     89.90527671	    -20.40345483	     18.53235610	     51.06510576	     85.77416559	      0.00000000	      0.00000000	     89.92446482	    -16.91918522	     25.48929608	     49.26613503	     85.00984883	      0.00000000	      0.00000000
      5.43000000	    -26.12661404	      3.71510813	      2.78139103	     -0.31054531	      0.77119155	     -1.04564447	     24.29882996	    -10.70907066	     -4.90570652	     87.34113044	      1.52439030	    -18.31116978	      0.00000000	      0.00000000	     71.88447488	      6.03211915	     -9.58054365	     86.39686133	      1.50790969	     29.63978463	      0.00000000	      0.00000000	     -0.74769852	     -6.51354120	      1.87782654	     89.90501827	    -20.42084308	     18.59173923	     51.07148093	     85.61713244	      0.00000000	      0.00000000	     89.92475818	    -16.89760201	     25.44303467	     49.28690990	     84.81576407	      0.00000000	      0.00000000
